<svg width="88" height="16" viewBox="0 0 88 16" fill="none" xmlns="http://www.w3.org/2000/svg">
<path d="M3.53068 9.20812C3.53068 6.24449 5.59264 4.84543 7.5434 4.84543C9.80707 4.84543 10.8199 6.22553 11.1329 7.47718L13.5258 6.72291C13.0103 4.60579 11.1518 2.39728 7.5434 2.39728C3.93497 2.39728 0.898926 5.048 0.898926 9.20812C0.898926 13.3682 3.93583 16 7.58046 16C11.2251 16 13.1207 13.57 13.6181 11.564L11.2441 10.846C10.8941 12.0606 9.80793 13.5148 7.58132 13.5148C5.48316 13.5148 3.53154 11.9873 3.53154 9.20726M21.2987 11.1959C21.2987 12.9079 20.1944 13.7725 18.998 13.7725C17.8015 13.7725 16.6972 12.889 16.6972 11.1959C16.6972 9.50294 17.8015 8.61936 18.998 8.61936C20.1944 8.61936 21.2987 9.48483 21.2987 11.1959ZM23.7468 11.1959C23.7468 8.39782 21.7038 6.3919 18.998 6.3919C16.2921 6.3919 14.2491 8.39782 14.2491 11.1959C14.2491 13.9941 16.2921 16 18.998 16C21.7038 16 23.7468 13.9751 23.7468 11.1959ZM29.9827 12.0614C29.9827 13.6631 29.0259 14.1596 27.9949 14.1596C27.2035 14.1596 26.8165 13.6441 26.8165 13.1105C26.8165 12.4114 27.3139 12.0614 27.9397 11.9692L29.9827 11.6563V12.0614ZM30.2404 15.7242H32.486C32.4308 15.4112 32.3757 14.7673 32.3757 14.288V9.83395C32.3757 8.01164 31.3085 6.3919 28.4371 6.3919C26.0071 6.3919 24.7002 7.95647 24.5537 9.37363L26.726 9.83395C26.7993 9.04262 27.3889 8.36162 28.4561 8.36162C29.5232 8.36162 29.9836 8.89521 29.9836 9.54C29.9836 9.85292 29.8181 10.1107 29.3026 10.1839L27.0751 10.515C25.5657 10.7356 24.3692 11.6382 24.3692 13.2579C24.3692 14.6751 25.5476 15.9819 27.4803 15.9819C28.8241 15.9819 29.6888 15.3561 30.1491 14.638C30.1491 14.988 30.1861 15.4845 30.2413 15.7242M35.8669 11.1959C35.8669 9.55811 36.916 8.65557 38.1676 8.65557C39.4193 8.65557 39.9529 9.4288 40.1735 10.1831L42.3639 9.4469C41.9777 7.9194 40.5787 6.39103 38.1124 6.39103C35.4807 6.39103 33.4187 8.39696 33.4187 11.1951C33.4187 13.9932 35.5169 15.9991 38.1857 15.9991C40.5968 15.9991 42.014 14.4527 42.4191 12.9433L40.2658 12.2252C40.0632 12.9243 39.4374 13.7527 38.1857 13.7527C36.9341 13.7527 35.8669 12.8321 35.8669 11.1942M49.2705 15.7242H51.7186V10.0184C51.7186 8.0306 50.6514 6.42896 48.3498 6.42896C47.4844 6.42896 46.4904 6.72378 45.9017 7.42288V2.39728H43.4535V15.7233H45.9017V10.4037C45.9568 9.40984 46.5646 8.6366 47.5947 8.6366C48.7731 8.6366 49.2696 9.42794 49.2696 10.4408V15.7233L49.2705 15.7242ZM60.1509 11.914C60.1509 12.9631 59.4147 13.607 58.1812 13.607H56.1192V10.165H58.2174C59.4872 10.165 60.15 10.883 60.15 11.914M59.7828 6.42896C59.7828 7.42288 59.0837 8.06681 57.9234 8.06681H56.1192V4.80922H57.9045C59.138 4.80922 59.782 5.43505 59.782 6.42896M60.3897 8.98745C61.4758 8.61936 62.2853 7.53322 62.2853 6.18932C62.2853 4.16443 60.8491 2.67399 58.3096 2.67399H53.6159V15.7242H58.6596C61.1078 15.7242 62.6904 14.1966 62.6904 12.0795C62.6904 10.4598 61.6594 9.30036 60.3897 8.98745ZM70.4598 11.1959C70.4598 12.9079 69.3556 13.7725 68.1591 13.7725C66.9626 13.7725 65.8584 12.889 65.8584 11.1959C65.8584 9.50294 66.9626 8.61936 68.1591 8.61936C69.3556 8.61936 70.4598 9.48483 70.4598 11.1959ZM72.908 11.1959C72.908 8.39782 70.865 6.3919 68.1591 6.3919C65.4532 6.3919 63.4102 8.39782 63.4102 11.1959C63.4102 13.9941 65.4532 16 68.1591 16C70.865 16 72.908 13.9751 72.908 11.1959ZM77.6069 15.8526C78.3249 15.8526 78.7663 15.7242 78.987 15.6319V13.607C78.8585 13.6441 78.5266 13.6803 78.2327 13.6803C77.5336 13.6803 77.1655 13.4226 77.1655 12.6312V8.83918H78.9878V6.66688H77.1655V3.96099H74.957V5.23075C74.957 6.04105 74.5157 6.66688 73.5579 6.66688H73.0976V8.83918H74.7355V13.0545C74.7355 14.8035 75.8397 15.8526 77.6069 15.8526ZM82.1377 6.12726C82.0333 6.22294 81.9204 6.26604 81.8161 6.26604C81.573 6.26604 81.3386 5.99709 81.3386 5.51091C81.3386 4.99025 81.4601 4.7644 81.9808 4.53941L82.1368 4.46959V6.12726H82.1377ZM84.3332 6.10053L84.2815 6.06605C84.2298 6.12726 84.1255 6.2488 83.9522 6.2488C83.6833 6.2488 83.6833 5.99709 83.6833 5.64108V3.74894C83.6833 2.72485 83.0928 2.13523 82.104 2.13523C81.1153 2.13523 80.3602 2.68175 80.0731 3.58429L80.1257 3.61015C80.3515 3.17655 80.7938 2.79468 81.3317 2.79468C82.1385 2.79468 82.1385 3.66273 82.1385 3.90582V4.34804L81.3748 4.55665C80.3679 4.83422 79.899 5.27644 79.899 5.93675C79.899 6.52637 80.3067 6.89101 80.9231 6.89101C81.4351 6.89101 81.9385 6.58758 82.2161 6.18846C82.2506 6.50913 82.4066 6.89101 83.0669 6.89101C83.7962 6.89101 84.1953 6.37897 84.3341 6.1014M86.7193 0.824094C86.7193 0.372394 86.3461 0 85.8952 0C85.4444 0 85.0539 0.373256 85.0539 0.824094C85.0539 1.27493 85.4271 1.66629 85.8952 1.66629C86.3633 1.66629 86.7193 1.29303 86.7193 0.824094ZM87.1012 6.7867V6.73498C86.7452 6.73498 86.7193 6.44017 86.7193 5.88417V2.15247H86.6848L84.6806 2.53435V2.58607C84.9754 2.69037 85.1228 2.8464 85.1228 3.40154V5.8833C85.1228 6.43845 85.097 6.73412 84.741 6.73412V6.78584H87.1012V6.7867Z" fill="url(#paint0_linear_3872_25590)"/>
<defs>
<linearGradient id="paint0_linear_3872_25590" x1="0.898926" y1="8" x2="87.1012" y2="8" gradientUnits="userSpaceOnUse">
<stop stop-color="#15A0A2"/>
<stop offset="1" stop-color="#72EEDC"/>
</linearGradient>
</defs>
</svg>
