<svg width="56" height="57" viewBox="0 0 56 57" fill="none" xmlns="http://www.w3.org/2000/svg">
<g clip-path="url(#clip0_0_81)">
<path d="M37.5667 37.5417H18.6083V50.4917H37.5667V37.5417Z" fill="#A6C44A"/>
<path d="M42.5833 12.1667C42.35 12.1667 42.0583 12.1667 41.825 12.225C40.0167 6.39167 34.1833 2.13333 27.2417 2.13333C21.1167 2.13333 15.8083 5.45833 13.4167 10.3C6.76668 11 1.57501 16.1917 1.57501 22.55C1.57501 29.375 7.64168 34.975 15.05 34.975C19.4833 34.975 23.45 32.9917 25.9 29.9583C26.3083 30.0167 26.775 30.0167 27.2417 30.0167C29.1667 30.0167 31.0333 29.6667 32.7833 29.025C34.8833 31.9417 38.5 33.8667 42.6417 33.8667C49.175 33.8667 54.4833 29.025 54.4833 23.0167C54.4833 17.0083 49.1167 12.1667 42.5833 12.1667Z" fill="#F8B602"/>
<path d="M15.1083 36.0833C6.99998 36.0833 0.466644 30.0167 0.466644 22.55C0.466644 15.9 5.71664 10.2417 12.7166 9.19167C15.4583 4.17501 21.1166 0.966675 27.2416 0.966675C34.1833 0.966675 40.3666 5.05001 42.6416 11.0583C49.7583 11.0583 55.5916 16.425 55.5916 23.075C55.5916 29.6667 49.7583 35.0917 42.6416 35.0917C38.6166 35.0917 34.825 33.3417 32.375 30.425C30.6833 30.95 28.9916 31.1833 27.2416 31.1833C26.95 31.1833 26.6583 31.1833 26.425 31.1833C23.625 34.275 19.5416 36.0833 15.1083 36.0833ZM27.2416 3.24167C21.7583 3.24167 16.7416 6.21668 14.4666 10.7667L14.175 11.35L13.5333 11.4083C7.40831 12.1083 2.74164 16.8917 2.74164 22.55C2.74164 28.7333 8.28331 33.8083 15.1083 33.8083C19.075 33.8083 22.6916 32.1167 25.025 29.2L25.4333 28.7333L26.0166 28.7917C26.3666 28.7917 26.775 28.85 27.2416 28.85C28.9916 28.85 30.7416 28.5583 32.375 27.975L33.1916 27.6833L33.7166 28.3833C35.7 31.125 39.025 32.7583 42.6416 32.7583C48.5333 32.7583 53.3166 28.3833 53.3166 23.075C53.3166 17.7667 48.475 13.3333 42.5833 13.3333C42.4083 13.3333 42.2333 13.3333 42.0583 13.3333L41.0083 13.3917L40.7166 12.5167C39.025 7.09168 33.4833 3.24167 27.2416 3.24167Z" fill="#2E2E2E"/>
<path d="M42.35 56.0333H13.65L7.9917 31.9417L10.0334 32.8167C11.6667 33.4583 13.3584 33.8083 15.1084 33.8083C19.075 33.8083 22.6917 32.1167 25.025 29.2L25.4334 28.7333L26.0167 28.7917C26.3667 28.7917 26.775 28.85 27.2417 28.85C28.9917 28.85 30.7417 28.5583 32.375 27.975L33.1917 27.6833L33.7167 28.3833C35.7 31.125 39.025 32.7583 42.6417 32.7583C43.8667 32.7583 45.0917 32.5833 46.2584 32.175L48.1834 31.5333L42.35 56.0333ZM15.4584 53.7583H40.6L45.0917 34.8C44.275 34.9167 43.4584 35.0333 42.6417 35.0333C38.6167 35.0333 34.825 33.2833 32.375 30.3667C30.6834 30.8917 28.9917 31.125 27.2417 31.125C26.95 31.125 26.6584 31.125 26.425 31.125C23.625 34.275 19.5417 36.0833 15.1084 36.0833C13.7667 36.0833 12.425 35.9083 11.2 35.6167L15.4584 53.7583Z" fill="#2E2E2E"/>
<path d="M23.5667 39.9333H21.2917V47.575H23.5667V39.9333Z" fill="#2E2E2E"/>
<path d="M29.225 39.9333H26.95V47.575H29.225V39.9333Z" fill="#2E2E2E"/>
<path d="M34.825 39.9333H32.55V47.575H34.825V39.9333Z" fill="#2E2E2E"/>
<path d="M13.5619 28.34L11.7328 26.6235L10.176 28.2825L12.0051 29.9989L13.5619 28.34Z" fill="#2E2E2E"/>
<path d="M15.3772 18.1127L13.5481 16.3963L11.9913 18.0552L13.8204 19.7717L15.3772 18.1127Z" fill="#2E2E2E"/>
<path d="M44.6505 18.9808L42.8216 17.264L41.2646 18.9227L43.0934 20.6395L44.6505 18.9808Z" fill="#2E2E2E"/>
<path d="M35.3825 21.2482L33.5535 19.5317L31.9967 21.1906L33.8257 22.9071L35.3825 21.2482Z" fill="#2E2E2E"/>
<path d="M47.3567 27.4415L45.5277 25.725L43.9709 27.384L45.8 29.1004L47.3567 27.4415Z" fill="#2E2E2E"/>
<path d="M24.1422 22.9562L22.3131 21.2397L20.7563 22.8987L22.5854 24.6151L24.1422 22.9562Z" fill="#2E2E2E"/>
<path d="M25.8272 12.9652L23.9982 11.2487L22.4414 12.9076L24.2704 14.6241L25.8272 12.9652Z" fill="#2E2E2E"/>
<path d="M34.4964 10.1941L32.6673 8.47766L31.1105 10.1366L32.9396 11.853L34.4964 10.1941Z" fill="#2E2E2E"/>
</g>
<defs>
<clipPath id="clip0_0_81">
<rect width="56" height="56" fill="white" transform="translate(0 0.5)"/>
</clipPath>
</defs>
</svg>
