<svg width="56" height="57" viewBox="0 0 56 57" fill="none" xmlns="http://www.w3.org/2000/svg">
<g clip-path="url(#clip0_0_126)">
<path d="M11.4917 49.9667C10.9083 49.4417 10.325 48.8 9.79999 48.2167L11.55 46.7C12.0167 47.225 12.5417 47.8083 13.0667 48.275L11.4917 49.9667ZM7.64166 45.3C7.23333 44.6 6.82499 43.9 6.41666 43.2L8.45833 42.15C8.80833 42.7917 9.15833 43.4333 9.56666 44.075L7.64166 45.3ZM5.07499 39.8167C4.84166 39.0583 4.60833 38.2417 4.43333 37.4833L6.70833 37.0167C6.88333 37.7167 7.05833 38.4167 7.29166 39.1167L5.07499 39.8167ZM3.96666 33.8667C3.90833 33.3417 3.90833 32.875 3.90833 32.35C3.90833 32.0583 3.90833 31.7667 3.90833 31.4167L6.24166 31.5333C6.24166 31.825 6.24166 32.0583 6.24166 32.35C6.24166 32.8167 6.24166 33.2833 6.29999 33.6917L3.96666 33.8667ZM6.59166 28.2667L4.31666 27.8583C4.49166 27.0417 4.66666 26.2833 4.89999 25.525L7.11666 26.1667C6.88333 26.8667 6.70833 27.5667 6.59166 28.2667ZM8.28333 23.075L6.18333 22.0833C6.53333 21.3833 6.88333 20.625 7.34999 19.925L9.33333 21.0917C8.92499 21.7917 8.57499 22.4333 8.28333 23.075ZM45.3833 49.0917L43.75 47.4583C44.275 46.9333 44.7417 46.35 45.2083 45.825L47.0167 47.225C46.4917 47.8667 45.9667 48.5083 45.3833 49.0917ZM49 44.1917L47.0167 43.0833C47.3667 42.4417 47.7167 41.8 48.0083 41.1L50.1083 42.0333C49.7583 42.7917 49.4083 43.4917 49 44.1917ZM51.275 38.65L49.0583 38.0667C49.2333 37.3667 49.4083 36.6667 49.525 35.9083L51.8 36.2583C51.6833 37.0167 51.5083 37.8333 51.275 38.65ZM52.0917 32.6417H49.7583V32.4083C49.7583 31.7667 49.7 31.0667 49.6417 30.425L51.9167 30.1917C51.975 30.8917 52.0333 31.65 52.0333 32.35L52.0917 32.6417ZM49.175 27.1583C49 26.4583 48.7667 25.7583 48.5333 25.0583L50.6917 24.3C50.9833 25.0583 51.2167 25.8167 51.3917 26.6333L49.175 27.1583ZM47.1917 22.0833C46.8417 21.4417 46.4917 20.8 46.0833 20.2167L48.0083 18.9333C48.475 19.575 48.8833 20.275 49.2917 21.0333L47.1917 22.0833Z" fill="#2E2E2E"/>
<path d="M12.8917 1.95834H43.1083L47.0167 9.71668H8.98334L12.8917 1.95834Z" fill="#A6C44A"/>
<path d="M48.9417 10.8833H7.1167L12.1917 0.791656H43.8667L48.9417 10.8833ZM10.85 8.54999H45.2084L42.4667 3.06666H13.65L10.85 8.54999Z" fill="#2E2E2E"/>
<path d="M16.8 55.0417H39.2L40.6 44.0167H15.4L16.8 55.0417Z" fill="white"/>
<path d="M40.25 56.2083H15.75L14.1167 42.85H41.9417L40.25 56.2083ZM17.7917 53.875H38.2084L39.3167 45.125H16.6834L17.7917 53.875Z" fill="#2E2E2E"/>
<path d="M44.8583 9.71667H11.1417L12.4833 20.7417H43.5167L44.8583 9.71667Z" fill="white"/>
<path d="M44.5083 21.9084H11.4917L9.85834 8.55002H46.2L44.5083 21.9084ZM13.5333 19.575H42.4667L43.575 10.825H12.425L13.5333 19.575Z" fill="#2E2E2E"/>
<path d="M12.4833 20.7417L15.4 44.0167H40.6L43.5167 20.7417H12.4833Z" fill="#F8B602"/>
<path d="M41.5917 45.1833H14.4083L11.2 19.6333H44.8L41.5917 45.1833ZM16.3917 42.85H39.55L42.175 21.9083H13.825L16.3917 42.85Z" fill="#F8B602"/>
<path d="M28.0001 40.3416C31.5117 40.3416 34.3584 36.7898 34.3584 32.4083C34.3584 28.0269 31.5117 24.475 28.0001 24.475C24.4884 24.475 21.6417 28.0269 21.6417 32.4083C21.6417 36.7898 24.4884 40.3416 28.0001 40.3416Z" fill="white"/>
<path d="M28 41.45C23.8584 41.45 20.475 37.3667 20.475 32.35C20.475 27.3333 23.8584 23.3083 28 23.3083C32.1417 23.3083 35.525 27.3917 35.525 32.4083C35.525 37.425 32.1417 41.45 28 41.45ZM28 25.5833C25.1417 25.5833 22.8084 28.6167 22.8084 32.35C22.8084 36.0833 25.1417 39.1167 28 39.1167C30.8584 39.1167 33.1917 36.0833 33.1917 32.35C33.1917 28.6167 30.8584 25.5833 28 25.5833Z" fill="#2E2E2E"/>
<path d="M27.475 40.575C26.8333 38.9417 26.775 37.1917 27.2416 35.5C27.3583 35.0917 27.5333 34.6833 27.65 34.3333C27.825 33.8083 28 33.3417 28.1166 32.9333C28.2333 32.175 28.1166 31.3 27.7666 30.425C27.4166 29.55 26.8333 28.675 26.25 27.8583C25.9 27.3917 25.6083 26.8667 25.375 26.2833C25.0833 25.4667 25.025 24.65 25.3166 23.95L27.475 24.825C27.4166 25 27.4166 25.2333 27.5333 25.4667C27.65 25.8167 27.8833 26.1667 28.175 26.5167C28.8166 27.45 29.4583 28.4417 29.925 29.55C30.45 30.8333 30.625 32.175 30.45 33.3417C30.3333 34.0417 30.1 34.625 29.8666 35.2083C29.75 35.5583 29.6333 35.85 29.5166 36.2C29.1666 37.3667 29.225 38.65 29.6916 39.7583L27.475 40.575Z" fill="#2E2E2E"/>
</g>
<defs>
<clipPath id="clip0_0_126">
<rect width="56" height="56" fill="white" transform="translate(0 0.5)"/>
</clipPath>
</defs>
</svg>
