<svg width="56" height="57" viewBox="0 0 56 57" fill="none" xmlns="http://www.w3.org/2000/svg">
<path d="M55.7084 25.4083H0.291687V24.2417C0.291687 13.7417 12.1334 1.95834 28 1.95834C43.8667 1.95834 55.7084 13.7417 55.7084 24.2417V25.4083ZM2.68335 23.075H53.375C52.5 13.975 41.9417 4.23334 28 4.23334C14.0584 4.23334 3.50002 13.975 2.68335 23.075Z" fill="#2E2E2E"/>
<path d="M9.09998 18.4667C12.3666 13.3333 19.6 8.89999 28 8.89999C36.4 8.89999 43.575 13.3333 46.9 18.4667H9.09998ZM52.325 53.875H3.67498C2.44998 53.875 1.45831 52.8833 1.45831 51.6583V44.1917H54.5416V51.6583C54.5416 52.8833 53.55 53.875 52.325 53.875Z" fill="#A6C44A"/>
<path d="M52.325 55.0417H3.67502C1.80835 55.0417 0.291687 53.525 0.291687 51.6583V43.0833H55.7084V51.7167C55.7084 53.525 54.1917 55.0417 52.325 55.0417ZM2.62502 45.3583V51.6583C2.62502 52.2417 3.09169 52.7083 3.67502 52.7083H52.3834C52.9667 52.7083 53.4334 52.2417 53.4334 51.6583V45.3583H2.62502Z" fill="#2E2E2E"/>
<path d="M49.525 39.175H6.47498C3.67498 39.175 1.45831 36.9 1.45831 34.1583C1.45831 31.3583 3.73331 29.1417 6.47498 29.1417H49.525C52.325 29.1417 54.5416 31.4167 54.5416 34.1583C54.5416 36.9583 52.325 39.175 49.525 39.175Z" fill="#F8B602"/>
<path d="M49.525 40.3417H6.47502C3.03335 40.3417 0.291687 37.5417 0.291687 34.1583C0.291687 30.775 3.09169 27.975 6.47502 27.975H49.525C52.9667 27.975 55.7084 30.775 55.7084 34.1583C55.7084 37.5417 52.9084 40.3417 49.525 40.3417ZM6.47502 30.25C4.31669 30.25 2.56669 32 2.56669 34.1583C2.56669 36.3167 4.31669 38.0667 6.47502 38.0667H49.525C51.6834 38.0667 53.4334 36.3167 53.4334 34.1583C53.4334 32 51.6834 30.25 49.525 30.25H6.47502Z" fill="#F8B602"/>
<path d="M30.8 36.3167C29.6916 36.3167 28.7 35.9083 27.7666 35.5583C27.0083 35.2667 26.3083 34.975 25.6666 34.975C24.9083 34.9167 24.0333 35.2083 23.1583 35.4417C21.8166 35.85 20.3 36.3167 18.7833 35.7917C18.3166 35.6167 17.9083 35.3833 17.5583 35.2083C17.325 35.0917 17.0916 34.9167 16.8583 34.8583C15.75 34.3917 14.4083 34.6833 12.95 35.0333L12.5416 35.15C10.85 35.5 8.39996 35.85 6.64996 34.3333L8.16663 32.5833C8.92496 33.225 10.15 33.3417 12.075 32.9333L12.4833 32.8167C14.1166 32.4667 15.9833 32.0583 17.7916 32.7583C18.1416 32.9333 18.4333 33.1083 18.7833 33.225C19.075 33.4 19.3666 33.575 19.6 33.6333C20.4166 33.925 21.4083 33.6333 22.575 33.2833C23.625 32.9917 24.675 32.6417 25.9 32.7C26.95 32.7583 27.825 33.1083 28.7 33.4583C29.6333 33.8083 30.5083 34.1583 31.2666 34.0417C31.5583 33.9833 31.9083 33.8667 32.3166 33.6917C32.4916 33.6333 32.6083 33.575 32.7833 33.5167C34.5333 32.8167 36.575 32.6417 38.4416 33.05C38.7333 33.1083 39.0833 33.1667 39.375 33.2833C39.9583 33.4583 40.5416 33.575 41.0666 33.575C41.825 33.575 42.6416 33.225 43.4583 32.9333C43.8083 32.8167 44.1583 32.6417 44.5083 32.525C46.4916 31.825 48.2416 32 49.4083 32.9917L47.8916 34.7417C47.1333 34.1 45.7916 34.5083 45.2083 34.6833C44.9166 34.8 44.5666 34.9167 44.275 35.0333C43.2833 35.4417 42.2333 35.85 41.0083 35.85C41.0083 35.85 41.0083 35.85 40.95 35.85C40.1333 35.85 39.375 35.675 38.675 35.5C38.3833 35.4417 38.15 35.3833 37.8583 35.325C36.4 35.0333 34.8833 35.15 33.5416 35.675C33.425 35.7333 33.25 35.7917 33.1333 35.85C32.6666 36.025 32.2 36.2583 31.6166 36.3167C31.325 36.2583 31.0916 36.3167 30.8 36.3167Z" fill="#2E2E2E"/>
<path d="M9.11769 19.0613L7.76434 17.1605L6.00614 18.4123L7.35949 20.3131L9.11769 19.0613Z" fill="#2E2E2E"/>
<path d="M40.0945 11.8803L38.7409 9.97974L36.9829 11.2318L38.3365 13.1324L40.0945 11.8803Z" fill="#2E2E2E"/>
<path d="M34.5034 9.538L33.1501 7.63724L31.3919 8.88908L32.7452 10.7898L34.5034 9.538Z" fill="#2E2E2E"/>
<path d="M13.4828 14.6626L11.9265 12.9241L10.8834 13.8578L12.4397 15.5964L13.4828 14.6626Z" fill="#2E2E2E"/>
<path d="M21.0213 10.9073L20.1235 8.75363L18.4544 9.44947L19.3522 11.6031L21.0213 10.9073Z" fill="#2E2E2E"/>
<path d="M15.4572 20.0792L14.4672 17.9663L13.2523 18.5355L14.2423 20.6484L15.4572 20.0792Z" fill="#2E2E2E"/>
<path d="M26.6583 9.71667L25.2 7.90834C25.9 7.325 26.775 6.91667 27.65 6.74167L28.175 8.95834C27.5916 9.13334 27.0666 9.36667 26.6583 9.71667ZM17.7916 16.5417L17.2083 14.325C17.7333 14.2083 18.2583 13.975 18.725 13.7417L19.775 15.7833C19.1333 16.075 18.4916 16.3083 17.7916 16.5417Z" fill="#2E2E2E"/>
<path d="M30.8663 19.6824L30.1247 17.4701L28.1889 18.1189L28.9305 20.3313L30.8663 19.6824Z" fill="#2E2E2E"/>
<path d="M42.6121 20.4088L41.8705 18.1964L39.9347 18.8453L40.6763 21.0577L42.6121 20.4088Z" fill="#2E2E2E"/>
<path d="M35.6417 20.8583L34.7083 18.7583C35.2917 18.525 35.875 18.2917 36.4583 18.175L36.925 20.45C36.4583 20.5667 35.9917 20.6833 35.6417 20.8583ZM32.6667 16.3667L31.7333 14.2667C32.3167 14.0333 32.9 13.8583 33.4833 13.6833L33.95 15.9583C33.4833 16.0167 33.075 16.1917 32.6667 16.3667Z" fill="#2E2E2E"/>
<path d="M26.931 14.8917L26.187 12.6802L24.86 13.1267L25.6041 15.3382L26.931 14.8917Z" fill="#2E2E2E"/>
<path d="M16.0246 12.0402L15.2795 9.82901L13.9528 10.2761L14.6979 12.4872L16.0246 12.0402Z" fill="#2E2E2E"/>
<path d="M24.0144 20.5081L23.2693 18.2969L21.9426 18.744L22.6877 20.9551L24.0144 20.5081Z" fill="#2E2E2E"/>
<path d="M48.1248 18.756L47.3807 16.5445L46.0538 16.9909L46.7979 19.2025L48.1248 18.756Z" fill="#2E2E2E"/>
<path d="M43.9296 16.2154L43.1855 14.0039L41.8586 14.4503L42.6027 16.6618L43.9296 16.2154Z" fill="#2E2E2E"/>
</svg>
