<svg width="56" height="57" viewBox="0 0 56 57" fill="none" xmlns="http://www.w3.org/2000/svg">
<path d="M14.4083 55.625C9.97497 55.625 5.54164 54.05 2.79997 50.4917C0.408302 47.4 -0.291698 43.2583 0.699968 38.7667C1.6333 34.6833 3.96663 30.8333 6.99997 28.5583C11.9583 24.7667 35.0583 13.2167 41.1833 21.2083C43.8083 24.7083 42.525 30.6 37.45 38.2417C33.4833 44.1917 28.1166 49.9083 25.0833 52.1833C22.225 54.4 18.3166 55.625 14.4083 55.625ZM34.0083 20.6833C26.075 20.6833 12.8916 26.9833 8.39997 30.3667C5.8333 32.35 3.79164 35.675 2.97497 39.2333C2.09997 43.025 2.74164 46.525 4.66664 49.0917C8.92497 54.6334 18.4916 54.3417 23.6833 50.4333C26.6 48.2167 31.85 42.5583 35.525 37.0167C39.9583 30.3083 41.3 25.2333 39.3166 22.6083C38.2666 21.2667 36.3416 20.6833 34.0083 20.6833Z" fill="#2E2E2E"/>
<path d="M14.4666 49.85C11.375 49.85 8.80831 48.8 7.40831 46.9917C6.12498 45.3 5.71664 42.7333 6.35831 40.05C6.94164 37.25 8.51664 34.625 10.5 33.1667C14.6416 30.0167 27.0666 24.1833 34.0083 24.1833C35.8166 24.1833 36.5166 24.5917 36.6333 24.7083C36.9833 25.1167 37.275 28.15 32.6666 35.0917C28.8166 40.8083 23.7416 46 21.525 47.6917C19.775 49.0333 17.0916 49.85 14.4666 49.85Z" fill="#F8B602"/>
<path d="M53.7249 16.8333C53.2583 16.1917 52.6749 15.725 52.0333 15.375C50.8083 14.7333 49.8749 13.5667 49.6416 12.225C49.4666 11.525 49.1749 10.825 48.7083 10.2417C47.2499 8.43332 44.2749 8.02499 42.3499 9.36665C40.1916 10.8833 39.7249 13.9167 41.2999 16.0167C41.7083 16.5417 41.6499 17.3 41.1249 17.65L37.8583 20.1583C38.7916 20.5667 39.6083 21.0917 40.1916 21.9083C40.7749 22.6666 41.1249 23.6 41.2416 24.5916L44.5083 22.0833C45.0333 21.675 45.7333 21.7917 46.1416 22.3167C47.7749 24.4166 50.8083 24.7666 52.8499 23.075C54.7166 21.675 55.0666 18.7 53.7249 16.8333Z" fill="#A6C44A"/>
<path d="M40.3667 26.75L40.1334 24.7667C40.0167 23.8917 39.7834 23.1917 39.3167 22.6083C38.85 22.025 38.2667 21.5583 37.45 21.2667L35.5834 20.5083L40.4834 16.775L40.425 16.7167C39.4334 15.4333 39.025 13.8583 39.3167 12.2833C39.55 10.7083 40.425 9.30832 41.7084 8.37499C44.1 6.68332 47.7167 7.14999 49.5834 9.48332C50.1667 10.2417 50.575 11.0583 50.75 11.9333C50.9834 12.9833 51.625 13.8583 52.5584 14.325C53.375 14.7333 54.075 15.375 54.6584 16.1333C56.4084 18.525 55.8834 22.1417 53.6084 24.0083C52.3834 25.0583 50.8084 25.4667 49.2334 25.2917C47.6584 25.1167 46.2584 24.3 45.2667 23.0167L45.2084 22.9583L40.3667 26.75ZM45.2084 20.7417C45.325 20.7417 45.4417 20.7417 45.5 20.7417C46.1417 20.8 46.6667 21.15 47.075 21.675C47.6584 22.4333 48.5334 22.9583 49.4667 23.075C50.4584 23.1917 51.3917 22.9 52.15 22.2583C53.4917 21.15 53.7834 18.875 52.7917 17.475C52.4417 17.0083 52.0334 16.6583 51.5667 16.3667C49.9917 15.55 48.8834 14.15 48.5334 12.4C48.4167 11.875 48.1834 11.35 47.8334 10.8833C46.725 9.54166 44.45 9.24999 43.05 10.2417C42.2334 10.825 41.7084 11.6417 41.5917 12.575C41.4167 13.5083 41.7084 14.5 42.2917 15.2583C42.7 15.7833 42.875 16.3667 42.7584 17.0083C42.7 17.5917 42.35 18.175 41.8834 18.525L40.0167 19.9833C40.4834 20.3333 40.8334 20.6833 41.1834 21.15C41.5334 21.6167 41.7667 22.0833 42 22.6083L43.8667 21.15C44.275 20.9167 44.7417 20.7417 45.2084 20.7417Z" fill="#2E2E2E"/>
<path d="M7.90397 37.1416L6.22736 36.9164L5.91674 39.229L7.59335 39.4542L7.90397 37.1416Z" fill="#2E2E2E"/>
<path d="M20.3849 37.4901L18.7083 37.2649L18.3977 39.5775L20.0743 39.8027L20.3849 37.4901Z" fill="#2E2E2E"/>
<path d="M31.7651 34.8619L30.0884 34.6367L29.7778 36.9493L31.4544 37.1745L31.7651 34.8619Z" fill="#2E2E2E"/>
<path d="M14.902 48.0451L13.2254 47.8199L12.9148 50.1325L14.5914 50.3577L14.902 48.0451Z" fill="#2E2E2E"/>
<path d="M18.9258 30.8381L17.2491 30.6129L16.9385 32.9254L18.6151 33.1506L18.9258 30.8381Z" fill="#2E2E2E"/>
<path d="M30.7143 25.2949L29.0377 25.0697L28.727 27.3823L30.4037 27.6075L30.7143 25.2949Z" fill="#2E2E2E"/>
<path d="M15.6333 1.375H13.3V8.60833H15.6333V1.375Z" fill="#2E2E2E"/>
<path d="M8.75002 11.4667H6.41669V18.7H8.75002V11.4667Z" fill="#2E2E2E"/>
<path d="M22.575 9.19168H20.2417V16.425H22.575V9.19168Z" fill="#2E2E2E"/>
</svg>
