<svg width="165" height="31" viewBox="0 0 165 31" fill="none" xmlns="http://www.w3.org/2000/svg">
<path d="M20.12 10.8C19.6133 9.86667 18.88 9.16 17.92 8.68C16.9867 8.17333 15.88 7.92 14.6 7.92C12.3867 7.92 10.6133 8.65333 9.28 10.12C7.94667 11.56 7.28 13.4933 7.28 15.92C7.28 18.5067 7.97333 20.5333 9.36 22C10.7733 23.44 12.7067 24.16 15.16 24.16C16.84 24.16 18.2533 23.7333 19.4 22.88C20.5733 22.0267 21.4267 20.8 21.96 19.2H13.28V14.16H28.16V20.52C27.6533 22.2267 26.7867 23.8133 25.56 25.28C24.36 26.7467 22.8267 27.9333 20.96 28.84C19.0933 29.7467 16.9867 30.2 14.64 30.2C11.8667 30.2 9.38667 29.6 7.2 28.4C5.04 27.1733 3.34667 25.48 2.12 23.32C0.92 21.16 0.32 18.6933 0.32 15.92C0.32 13.1467 0.92 10.68 2.12 8.52C3.34667 6.33333 5.04 4.64 7.2 3.44C9.36 2.21333 11.8267 1.6 14.6 1.6C17.96 1.6 20.7867 2.41333 23.08 4.04C25.4 5.66667 26.9333 7.92 27.68 10.8H20.12ZM42.1088 30.32C39.9221 30.32 37.9488 29.8533 36.1888 28.92C34.4554 27.9867 33.0821 26.6533 32.0688 24.92C31.0821 23.1867 30.5888 21.16 30.5888 18.84C30.5888 16.5467 31.0954 14.5333 32.1087 12.8C33.1221 11.04 34.5088 9.69333 36.2688 8.76C38.0288 7.82667 40.0021 7.36 42.1888 7.36C44.3754 7.36 46.3488 7.82667 48.1088 8.76C49.8688 9.69333 51.2554 11.04 52.2688 12.8C53.2821 14.5333 53.7888 16.5467 53.7888 18.84C53.7888 21.1333 53.2688 23.16 52.2288 24.92C51.2154 26.6533 49.8154 27.9867 48.0288 28.92C46.2688 29.8533 44.2954 30.32 42.1088 30.32ZM42.1088 24.4C43.4154 24.4 44.5221 23.92 45.4288 22.96C46.3621 22 46.8288 20.6267 46.8288 18.84C46.8288 17.0533 46.3754 15.68 45.4688 14.72C44.5888 13.76 43.4954 13.28 42.1888 13.28C40.8554 13.28 39.7488 13.76 38.8688 14.72C37.9888 15.6533 37.5488 17.0267 37.5488 18.84C37.5488 20.6267 37.9754 22 38.8288 22.96C39.7088 23.92 40.8021 24.4 42.1088 24.4ZM89.2175 1.92V30H82.3775V13.16L76.0975 30H70.5775L64.2575 13.12V30H57.4175V1.92H65.4975L73.3775 21.36L81.1775 1.92H89.2175ZM115.176 18.48C115.176 19.12 115.136 19.7867 115.056 20.48H99.5763C99.6829 21.8667 100.123 22.9333 100.896 23.68C101.696 24.4 102.67 24.76 103.816 24.76C105.523 24.76 106.71 24.04 107.376 22.6H114.656C114.283 24.0667 113.603 25.3867 112.616 26.56C111.656 27.7333 110.443 28.6533 108.976 29.32C107.51 29.9867 105.87 30.32 104.056 30.32C101.87 30.32 99.9229 29.8533 98.2163 28.92C96.5096 27.9867 95.1763 26.6533 94.2163 24.92C93.2563 23.1867 92.7763 21.16 92.7763 18.84C92.7763 16.52 93.2429 14.4933 94.1763 12.76C95.1363 11.0267 96.4696 9.69333 98.1763 8.76C99.8829 7.82667 101.843 7.36 104.056 7.36C106.216 7.36 108.136 7.81333 109.816 8.72C111.496 9.62667 112.803 10.92 113.736 12.6C114.696 14.28 115.176 16.24 115.176 18.48ZM108.176 16.68C108.176 15.5067 107.776 14.5733 106.976 13.88C106.176 13.1867 105.176 12.84 103.976 12.84C102.83 12.84 101.856 13.1733 101.056 13.84C100.283 14.5067 99.8029 15.4533 99.6163 16.68H108.176ZM117.425 18.8C117.425 16.5067 117.851 14.4933 118.705 12.76C119.585 11.0267 120.771 9.69333 122.265 8.76C123.758 7.82667 125.425 7.36 127.265 7.36C128.838 7.36 130.211 7.68 131.385 8.32C132.585 8.96 133.505 9.8 134.145 10.84V7.68H140.985V30H134.145V26.84C133.478 27.88 132.545 28.72 131.345 29.36C130.171 30 128.798 30.32 127.225 30.32C125.411 30.32 123.758 29.8533 122.265 28.92C120.771 27.96 119.585 26.6133 118.705 24.88C117.851 23.12 117.425 21.0933 117.425 18.8ZM134.145 18.84C134.145 17.1333 133.665 15.7867 132.705 14.8C131.771 13.8133 130.625 13.32 129.265 13.32C127.905 13.32 126.745 13.8133 125.785 14.8C124.851 15.76 124.385 17.0933 124.385 18.8C124.385 20.5067 124.851 21.8667 125.785 22.88C126.745 23.8667 127.905 24.36 129.265 24.36C130.625 24.36 131.771 23.8667 132.705 22.88C133.665 21.8933 134.145 20.5467 134.145 18.84ZM152.773 0.4V30H145.933V0.4H152.773Z" fill="#2E2E2E"/>
<path d="M160.93 30.32C159.73 30.32 158.743 29.9733 157.97 29.28C157.223 28.56 156.85 27.68 156.85 26.64C156.85 25.5733 157.223 24.68 157.97 23.96C158.743 23.24 159.73 22.88 160.93 22.88C162.103 22.88 163.063 23.24 163.81 23.96C164.583 24.68 164.97 25.5733 164.97 26.64C164.97 27.68 164.583 28.56 163.81 29.28C163.063 29.9733 162.103 30.32 160.93 30.32Z" fill="#F8B602"/>
</svg>
