<svg width="56" height="57" viewBox="0 0 56 57" fill="none" xmlns="http://www.w3.org/2000/svg">
<g clip-path="url(#clip0_0_161)">
<path d="M31.7334 49.325C22.4001 53.4083 11.4917 49.15 7.40839 39.8167C3.32505 30.4833 7.58339 19.575 16.9167 15.4917C21.5834 13.45 26.6584 13.5083 31.0334 15.2L32.9584 10.2417C27.3001 8.025 20.7667 7.96667 14.7584 10.5917C2.74172 15.8417 -2.74161 29.9 2.50839 41.9167C7.75839 53.9333 21.8167 59.4167 33.8334 54.1667C45.8501 48.9167 51.3334 34.8583 46.0834 22.8417L41.2417 25C45.3251 34.3333 41.0667 45.2417 31.7334 49.325Z" fill="#F8B602"/>
<path d="M38.85 7.26665C43.2833 8.95832 47.0166 12.4 49.0583 17.0667L53.9 14.9083C51.275 8.89999 46.4916 4.52499 40.775 2.30832L38.85 7.26665Z" fill="#A6C44A"/>
<path d="M48.475 18.5833L48.0084 17.5333C46.1417 13.275 42.7584 10.0667 38.4417 8.37499L37.3334 7.90832L40.1334 0.791656L41.2417 1.19999C47.425 3.64999 52.325 8.31666 55.0084 14.4417L55.475 15.4917L48.475 18.5833ZM40.3667 6.62499C44.3917 8.49166 47.6 11.5833 49.6417 15.55L52.3834 14.3833C50.05 9.71666 46.2584 6.04166 41.475 3.88332L40.3667 6.62499Z" fill="#2E2E2E"/>
<path d="M49.0584 17.0667C47.0167 12.4 43.2834 9.01666 38.8501 7.26666L32.1417 24.475L49.0584 17.0667Z" fill="#F8B602"/>
<path d="M30.0416 26.6917L38.2083 5.75L39.3166 6.15833C44.2166 8.08333 48.0666 11.7583 50.1666 16.6L50.6333 17.65L30.0416 26.6917ZM39.4916 8.78333L34.2416 22.2583L47.4833 16.4833C45.7333 13.1 42.9333 10.4167 39.4916 8.78333Z" fill="#2E2E2E"/>
<path d="M24.325 52.0667C16.7417 52.0667 9.50833 47.6917 6.3 40.2833C1.925 30.3667 6.475 18.7583 16.3917 14.3833C21.175 12.2833 26.5417 12.1667 31.4417 14.0917L32.55 14.5L26.425 30.1917L41.825 23.425L42.2917 24.475C44.3917 29.2583 44.5083 34.625 42.5833 39.525C40.6583 44.425 36.9833 48.275 32.1417 50.375C29.6333 51.5417 27.0083 52.0667 24.325 52.0667ZM8.45833 39.35C12.3083 48.1 22.5167 52.0667 31.2667 48.275C35.525 46.4083 38.7333 43.025 40.425 38.7083C41.9417 34.7417 42 30.4833 40.6 26.575L22.225 34.625L29.5167 15.9C25.55 14.6167 21.2333 14.85 17.3833 16.5417C8.63333 20.3917 4.66667 30.6 8.45833 39.35Z" fill="#2E2E2E"/>
<path d="M17.9084 45.0083C19.5192 45.0083 20.825 43.7025 20.825 42.0917C20.825 40.4809 19.5192 39.175 17.9084 39.175C16.2975 39.175 14.9917 40.4809 14.9917 42.0917C14.9917 43.7025 16.2975 45.0083 17.9084 45.0083Z" fill="#A6C44A"/>
<path d="M17.9084 46.175C16.3334 46.175 14.8167 45.2416 14.1167 43.725C13.65 42.7333 13.65 41.625 14.0584 40.575C14.4667 39.525 15.225 38.7666 16.2167 38.3C17.2084 37.8333 18.3167 37.8333 19.3667 38.2416C20.4167 38.65 21.175 39.4083 21.6417 40.4C22.1084 41.3916 22.1084 42.5 21.7 43.55C21.2917 44.6 20.5334 45.3583 19.5417 45.825C19.0167 46.0583 18.4334 46.175 17.9084 46.175ZM17.9084 40.2833C17.675 40.2833 17.4417 40.3416 17.2084 40.4583C16.8 40.6333 16.45 40.9833 16.275 41.45C16.1 41.9166 16.1 42.3833 16.275 42.7916C16.6834 43.6666 17.7334 44.075 18.6084 43.725C19.0167 43.55 19.3667 43.2 19.5417 42.7333C19.7167 42.2666 19.7167 41.8 19.5417 41.3916C19.3667 40.9833 19.0167 40.6333 18.55 40.4583C18.3167 40.3416 18.0834 40.2833 17.9084 40.2833Z" fill="#A6C44A"/>
<path d="M15.9833 26.6333C17.4008 26.6333 18.55 25.4842 18.55 24.0667C18.55 22.6491 17.4008 21.5 15.9833 21.5C14.5658 21.5 13.4166 22.6491 13.4166 24.0667C13.4166 25.4842 14.5658 26.6333 15.9833 26.6333Z" fill="#A6C44A"/>
<path d="M15.9833 27.8C15.5166 27.8 15.05 27.7417 14.6416 27.5667C13.7083 27.2167 13.0083 26.5167 12.6 25.5833C12.1916 24.65 12.1916 23.6583 12.5416 22.725C12.8916 21.7917 13.5916 21.0917 14.525 20.6833C16.3916 19.8667 18.6083 20.7417 19.425 22.6083C20.2416 24.475 19.3666 26.6917 17.5 27.5083C17.0333 27.6833 16.5083 27.8 15.9833 27.8ZM15.9833 22.725C15.8083 22.725 15.6333 22.7833 15.4583 22.8417C15.1083 23.0167 14.875 23.25 14.7 23.6C14.5833 23.95 14.5833 24.3 14.7 24.65C14.8166 25 15.1083 25.2333 15.4583 25.4083C15.8083 25.525 16.1583 25.525 16.5083 25.4083C17.2083 25.1167 17.5 24.3 17.2083 23.6C17.0333 23.0167 16.5083 22.725 15.9833 22.725Z" fill="#A6C44A"/>
<path d="M32.9584 44.3667C32.4917 44.3667 32.0834 44.3083 31.6167 44.1333C30.6834 43.7833 29.9834 43.0833 29.5751 42.2083L31.7334 41.275C31.8501 41.625 32.1417 41.8583 32.4334 41.975C32.7834 42.0917 33.1334 42.0917 33.4251 41.975C34.0667 41.6833 34.4167 40.925 34.1251 40.225L36.2834 39.2917C37.1001 41.1583 36.2251 43.3167 34.4167 44.1333C33.9501 44.3083 33.4834 44.3667 32.9584 44.3667ZM40.5417 18.1167C39.1417 18.1167 37.8001 17.3 37.1584 15.9L39.3167 14.9667C39.6084 15.6083 40.3667 15.9583 41.0667 15.6667C41.7084 15.375 42.0584 14.6167 41.7667 13.9167L43.9251 12.9833C44.7417 14.85 43.8667 17.0083 42.0584 17.825C41.5334 18.0583 41.0667 18.1167 40.5417 18.1167Z" fill="#2E2E2E"/>
<path d="M10.8684 33.9205L8.54578 33.6975L8.37855 35.4394L10.7011 35.6624L10.8684 33.9205Z" fill="#2E2E2E"/>
<path d="M13.5333 38.7083L11.2583 38.2417C11.375 37.6 11.6666 36.9583 12.075 36.4333L13.9416 37.8333C13.7083 38.125 13.5916 38.4167 13.5333 38.7083ZM16.45 33.575L14.525 32.2333C14.8166 31.7667 15.225 31.4167 15.6916 31.0667L17.0333 32.9917C16.8 33.1083 16.625 33.3417 16.45 33.575Z" fill="#2E2E2E"/>
<path d="M23.1208 27.3707L21.0125 26.3711L20.4877 27.478L22.5961 28.4776L23.1208 27.3707Z" fill="#2E2E2E"/>
<path d="M42.0447 11.4372L39.9349 10.4405L39.4116 11.5481L41.5214 12.5448L42.0447 11.4372Z" fill="#2E2E2E"/>
<path d="M26.0166 21.2667L23.6833 20.8583C23.8 20.275 24.0333 19.6917 24.3833 19.225L26.3083 20.5667C26.1333 20.7417 26.075 21.0333 26.0166 21.2667ZM21.7583 19.6917L19.4833 19.05C19.6583 18.4667 19.95 17.8833 20.4166 17.4167L22.1083 19.05C21.9916 19.225 21.8166 19.4583 21.7583 19.6917ZM9.44997 28.325C9.21664 27.6833 9.21664 26.9833 9.56664 26.3417L11.6666 27.45L9.44997 28.325Z" fill="#2E2E2E"/>
<path d="M23.6112 38.381L22.6758 36.2433L21.7673 36.6409L22.7027 38.7785L23.6112 38.381Z" fill="#2E2E2E"/>
<path d="M26.1502 42.9434L25.2126 40.8067L24.3046 41.2052L25.2421 43.3419L26.1502 42.9434Z" fill="#2E2E2E"/>
<path d="M24.9236 47.3403L24.4576 45.054L23.0287 45.3452L23.4946 47.6315L24.9236 47.3403Z" fill="#2E2E2E"/>
<path d="M31.3694 46.5832L30.115 44.6158L28.4918 45.6506L29.7462 47.6181L31.3694 46.5832Z" fill="#2E2E2E"/>
<path d="M26.775 38.3583C26.775 37.5417 27.125 36.7833 27.7667 36.3167L29.225 38.1833C29.1667 38.1833 29.1667 38.2417 29.1667 38.3L26.775 38.3583Z" fill="#2E2E2E"/>
<path d="M33.0205 32.8022L31.7057 30.8745L30.5009 31.6963L31.8158 33.6239L33.0205 32.8022Z" fill="#2E2E2E"/>
<path d="M34.0084 38.0667L33.3667 35.7917C33.5417 35.7333 33.775 35.6167 33.8917 35.5L35.4084 37.3083C35 37.6583 34.5334 37.8917 34.0084 38.0667Z" fill="#2E2E2E"/>
<path d="M39.4254 32.0582L37.7325 30.4524L36.4077 31.8489L38.1005 33.4548L39.4254 32.0582Z" fill="#2E2E2E"/>
<path d="M20.6928 33.95L18.6458 32.8302L18.2538 33.5466L20.3008 34.6665L20.6928 33.95Z" fill="#2E2E2E"/>
<path d="M38.612 19.0257L36.5654 17.905L36.1732 18.6213L38.2197 19.742L38.612 19.0257Z" fill="#2E2E2E"/>
</g>
<defs>
<clipPath id="clip0_0_161">
<rect width="56" height="56" fill="white" transform="translate(0 0.5)"/>
</clipPath>
</defs>
</svg>
