<svg width="56" height="57" viewBox="0 0 56 57" fill="none" xmlns="http://www.w3.org/2000/svg">
<g clip-path="url(#clip0_0_194)">
<path d="M34.7083 37.075C30.2167 37.075 21.2333 32.8167 14.0583 25.6417C9.50833 21.0917 7.93333 16.075 7.875 12.5167L9.39167 10.0667L11.4917 8.49167C11.55 8.49167 11.6667 8.49167 11.725 8.49167C14.4667 8.49167 19.8333 9.30834 25.1417 14.5583C29.3417 18.7583 33.0167 24.1833 35.0583 29.0833C36.9833 33.8083 36.6917 36.375 36.225 36.7833C36.1667 36.8417 35.7 37.075 34.7083 37.075Z" fill="#F8B602"/>
<path d="M19.1916 28.3833C18.7833 28.3833 18.4916 28.2084 18.375 28.15C17.2666 27.5667 16.45 26.4583 15.9833 25.0583C15.6333 23.8917 15.6333 22.725 15.6333 21.675L17.9083 21.6167C17.9083 22.55 17.9666 23.5417 18.2 24.4167C18.3166 24.7667 18.4333 25.0583 18.6083 25.35C18.6666 25.1167 18.6666 24.65 19.0166 24.2417C19.5416 23.6 20.475 23.425 21.35 23.8917C21.4666 23.95 21.5833 24.0084 21.7 24.0667C21.7583 24.125 21.8166 24.125 21.875 24.1833C21.875 24.1833 21.875 24.1833 21.875 24.125C21.9333 23.95 21.9333 23.7167 21.875 23.3667C21.875 23.25 21.8166 23.1917 21.8166 23.075C21.7583 22.725 21.6416 22.375 21.6416 21.9667C21.6416 21.0917 22.1083 20.275 22.8666 19.9833C23.45 19.75 24.0333 19.8083 24.4416 19.925L23.975 18.2333C23.8583 17.825 23.975 17.4167 24.2666 17.125C24.2666 17.125 24.2666 17.125 24.325 17.0667C23.275 16.8917 22.1083 17.0083 21 17.125L20.7666 14.85C22.05 14.7333 23.5083 14.5583 24.9083 14.85C26.6583 15.2 28.0583 16.1333 28.8166 17.4167C28.9916 17.7083 28.9916 18.1167 28.875 18.4667C28.7 18.8167 28.4083 19.05 28.0583 19.1083C27.5916 19.1667 27.125 19.225 26.6583 19.225L26.7166 19.4C27.0083 20.45 26.8333 21.2667 26.25 21.7917C25.4916 22.4333 24.6166 22.2 24.15 22.0833C24.0916 22.0833 24.0333 22.0833 24.0333 22.025C24.0333 22.1417 24.0916 22.3167 24.15 22.4917C24.15 22.6083 24.2083 22.725 24.2083 22.8417C24.3833 23.6583 24.325 24.3584 24.0916 24.9417C23.6833 25.875 22.75 26.4583 21.8166 26.3417C21.4083 26.2833 21.1166 26.1667 20.8833 25.9917L20.7666 26.75C20.5916 28.0333 19.775 28.2667 19.4833 28.2667C19.3083 28.3833 19.25 28.3833 19.1916 28.3833Z" fill="#2E2E2E"/>
<path d="M15.2251 11.7C14.2917 12.6333 12.8334 12.6333 11.9001 11.7C10.9667 10.7667 10.9667 9.30832 11.9001 8.37499C12.8334 7.44165 14.2917 7.44165 15.2251 8.37499C16.1584 9.30832 16.1584 10.7667 15.2251 11.7Z" fill="#A6C44A"/>
<path d="M13.5333 13.5083C12.5999 13.5083 11.7249 13.1583 11.0833 12.4583C9.74161 11.1167 9.74161 8.90001 11.0833 7.50001C11.7249 6.85835 12.5999 6.45001 13.5333 6.45001C14.4666 6.45001 15.3416 6.80001 15.9833 7.50001C17.3249 8.84168 17.3249 11.0583 15.9833 12.4583C15.3416 13.1583 14.4666 13.5083 13.5333 13.5083ZM13.5333 8.78335C13.1833 8.78335 12.8916 8.90001 12.6583 9.13335C12.1916 9.60001 12.1916 10.4167 12.6583 10.8833C13.1249 11.35 13.9416 11.35 14.4083 10.8833C14.8749 10.4167 14.8749 9.60001 14.4083 9.13335C14.1749 8.90001 13.8833 8.78335 13.5333 8.78335Z" fill="#2E2E2E"/>
<path d="M34.7083 42.5583C28.0583 42.5583 17.7917 37.075 10.2083 29.4917C1.45833 20.7417 1.80833 11.175 3.20833 7.325L3.49999 6.45L5.83333 6.68333L5.54166 4.23333L6.29999 3.88333C10.675 2.075 20.7083 2.30833 28.9917 10.65C38.675 20.3333 45.5 35.2083 40.075 40.6333C38.85 41.8583 37.0417 42.5583 34.7083 42.5583ZM5.07499 8.9C4.02499 13.1 4.95833 20.975 11.7833 27.8583C18.8417 34.9167 28.7 40.225 34.7083 40.225C36.4 40.225 37.6833 39.8167 38.5583 38.9417C42.525 34.975 36.9833 21.7333 27.475 12.1667C20.3583 5.16666 12.1333 4.46666 7.99166 5.69166L8.39999 9.30833L5.07499 8.9Z" fill="#2E2E2E"/>
<path d="M40.95 35.6167C40.8917 37.3667 40.3667 38.825 39.3751 39.8167C38.3834 40.8083 36.925 41.3333 35.175 41.3917L38.6167 53.9917L53.4917 39L40.95 35.6167Z" fill="#A6C44A"/>
<path d="M37.975 56.15L33.6583 40.2833L35.0583 40.225C36.575 40.1667 37.7417 39.7583 38.5 38.9417C39.2583 38.1833 39.6667 37.0167 39.7833 35.5L39.8417 34.1L55.7083 38.4167L37.975 56.15ZM36.575 42.3833L39.1417 51.8333L51.3333 39.5833L41.8833 37.0167C41.5917 38.475 41.0083 39.6417 40.1333 40.575C39.2583 41.5083 38.0333 42.0917 36.575 42.3833Z" fill="#2E2E2E"/>
<path d="M26.425 52.9417C25.725 52.9417 25.025 52.9417 24.3833 52.8833L24.5583 50.6083C25.2 50.6667 25.8416 50.6667 26.425 50.6667C26.5416 50.6667 26.6 50.6667 26.7166 50.6667L26.775 52.9417C26.6583 52.9417 26.5416 52.9417 26.425 52.9417ZM30.275 52.65L29.925 50.4333C30.625 50.3167 31.325 50.2 32.025 50.025L32.55 52.2417C31.85 52.3583 31.0333 52.5333 30.275 52.65ZM20.8833 52.3583C20.125 52.1833 19.3666 52.0083 18.6083 51.775L19.3083 49.6167C20.0083 49.85 20.7083 50.025 21.4083 50.1417L20.8833 52.3583ZM15.2833 50.4917C14.5833 50.1417 13.8833 49.7917 13.1833 49.3833L14.35 47.4583C14.9916 47.8083 15.6333 48.1583 16.275 48.45L15.2833 50.4917ZM10.2666 47.3417C9.62496 46.875 9.04163 46.35 8.45829 45.7667L10.0333 44.1333C10.5583 44.6 11.0833 45.125 11.6666 45.5333L10.2666 47.3417ZM6.06663 43.2C5.59996 42.5583 5.07496 41.9167 4.66663 41.275L6.53329 40.05C6.94163 40.6333 7.34996 41.2167 7.81662 41.8L6.06663 43.2ZM2.91663 38.2417C2.56663 37.5417 2.27496 36.7833 1.98329 36.0833L4.08329 35.2667C4.31663 35.9667 4.60829 36.6083 4.95829 37.25L2.91663 38.2417ZM0.933293 32.6417C0.758293 31.8833 0.641626 31.0667 0.524959 30.3083L2.74163 30.0167C2.85829 30.7167 2.97496 31.4167 3.14996 32.1167L0.933293 32.6417ZM2.56663 26.8083H0.291626C0.291626 26.05 0.349959 25.2333 0.408293 24.475L2.68329 24.7083C2.62496 25.35 2.56663 26.05 2.56663 26.8083Z" fill="#2E2E2E"/>
<path d="M52.0333 31.2417L49.8166 30.8917C49.9333 30.1917 50.0499 29.4917 50.1083 28.7333L52.3833 28.9083C52.2666 29.6667 52.2083 30.4833 52.0333 31.2417ZM50.1083 25.4667C50.0499 24.7667 49.9916 24.0083 49.8749 23.3083L52.0916 22.9583C52.2083 23.7167 52.2666 24.5333 52.3249 25.2917L50.1083 25.4667ZM49.1749 20.1583C48.9999 19.4583 48.7666 18.7583 48.4749 18.1167L50.5749 17.3C50.8666 18.0583 51.0999 18.7583 51.3333 19.5167L49.1749 20.1583ZM47.1333 15.2C46.7833 14.5583 46.3749 13.975 45.9666 13.3917L47.8333 12.1083C48.2999 12.75 48.7083 13.45 49.0583 14.0917L47.1333 15.2ZM43.9833 10.825C43.5166 10.3 42.9916 9.77499 42.4666 9.30832L43.9833 7.61666C44.5666 8.14166 45.1499 8.72499 45.6749 9.30832L43.9833 10.825ZM39.8999 7.26666C39.3166 6.85832 38.6749 6.44999 38.0916 6.09999L39.1999 4.11666C39.8999 4.52499 40.5416 4.93332 41.1833 5.39999L39.8999 7.26666ZM35.1749 4.75832C34.4749 4.46666 33.8333 4.23332 33.1333 3.99999L33.7749 1.84166C34.5333 2.07499 35.2916 2.30832 35.9916 2.59999L35.1749 4.75832ZM22.4583 3.35832L22.1083 1.14166C22.8666 1.02499 23.6833 0.908323 24.4416 0.84999L24.6166 3.12499C23.8583 3.18332 23.1583 3.24166 22.4583 3.35832ZM29.9833 3.29999C29.2833 3.18332 28.5249 3.12499 27.8249 3.06666L27.9416 0.791656C28.6999 0.84999 29.5166 0.908323 30.2749 1.02499L29.9833 3.29999Z" fill="#2E2E2E"/>
</g>
<defs>
<clipPath id="clip0_0_194">
<rect width="56" height="56" fill="white" transform="translate(0 0.5)"/>
</clipPath>
</defs>
</svg>
